<svg xmlns="http://www.w3.org/2000/svg" viewBox="0 0 4410 60" width="4410" height="60"><g fill="none" stroke="#000000" stroke-linecap="round" stroke-miterlimit="10"><path d="M25 50h34.6c5.5 0 0-5 0-5L25 10" stroke-dasharray="34.745069156845645,56.6893233611692" stroke-dashoffset="91.434393"/><path d="M25 30h40s5 0 5-5V10s0-5-5-5H25s-5 0-5 5v40s0 5 5 5h40s5 0 5-5V25" stroke-dasharray="35.94894437494083,203.71068479133137" stroke-dashoffset="239.659629"/><path d="M25 10h35c5.6 0 0 5 0 5L25 50" stroke-dasharray="35.02952941694944,57.153442732917505" stroke-dashoffset="92.182972"/></g><g fill="none" stroke="#000000" stroke-linecap="round" stroke-miterlimit="10"><path d="M115 50h34.6c5.5 0 0-5 0-5L115 10" stroke-dasharray="32.82930093265866,58.605091585356185" stroke-dashoffset="89.518624"/><path d="M115 30h40s5 0 5-5V10s0-5-5-5h-40s-5 0-5 5v40s0 5 5 5h40s5 0 5-5V25" stroke-dasharray="36.997405323453854,202.66222384281832" stroke-dashoffset="236.464167"/><path d="M115 10h35c5.6 0 0 5 0 5l-35 35" stroke-dasharray="33.67751249208472,58.505459657782225" stroke-dashoffset="90.830955"/></g><g fill="none" stroke="#000000" stroke-0.1linecap="round" stroke-miterlimit="10"><path d="M205 50h34.6c5.5 0 0-5 0-5L205 10" stroke-dasharray="30.91353270847169,60.52085980954316" stroke-dashoffset="87.602856"/><path d="M205 30h40s5 0 5-5V10s0-5-5-5h-40s-5 0-5 5v40s0 5 5 5h40s5 0 5-5V25" stroke-dasharray="38.045866271966894,201.6137628943053" stroke-dashoffset="233.268706"/><path d="M205 10h35c5.6 0 0 5 0 5l-35 35" stroke-dasharray="32.32549556722001,59.85747658264693" stroke-dashoffset="89.478938"/></g><g fill="none" stroke="#000000" stroke-linecap="round" stroke-miterlimit="10"><path d="M295 50h34.6c5.5 0 0-5 0-5L295 10" stroke-dasharray="28.997764484284712,62.43662803373014" stroke-dashoffset="85.687088"/><path d="M295 30h40s5 0 5-5V10s0-5-5-5h-40s-5 0-5 5v40s0 5 5 5h40s5 0 5-5V25" stroke-dasharray="39.09432722047992,200.56530194579227" stroke-dashoffset="230.073244"/><path d="M295 10h35c5.6 0 0 5 0 5l-35 35" stroke-dasharray="30.973478642355293,61.209493507511645" stroke-dashoffset="88.126921"/></g><g fill="none" stroke="#000000" stroke-linecap="round" stroke-miterlimit="10"><path d="M385 50h34.6c5.5 0 0-5 0-5L385 10" stroke-dasharray="27.081996260097736,64.3523962579171" stroke-dashoffset="83.77132"/><path d="M385 30h40s5 0 5-5V10s0-5-5-5h-40s-5 0-5 5v40s0 5 5 5h40s5 0 5-5V25" stroke-dasharray="40.14278816899296,199.51684099727925" stroke-dashoffset="226.877782"/><path d="M385 10h35c5.6 0 0 5 0 5l-35 35" stroke-dasharray="29.62146171749058,62.56151043237636" stroke-dashoffset="86.774904"/></g><g fill="none" stroke="#000000" stroke-linecap="round" stroke-miterlimit="10"><path d="M475 50h34.6c5.5 0 0-5 0-5L475 10" stroke-dasharray="25.166228035910752,66.26816448210408" stroke-dashoffset="81.855551"/><path d="M475 30h40s5 0 5-5V10s0-5-5-5h-40s-5 0-5 5v40s0 5 5 5h40s5 0 5-5V25" stroke-dasharray="41.19124911750598,198.46838004876622" stroke-dashoffset="223.682321"/><path d="M475 10h35c5.6 0 0 5 0 5l-35 35" stroke-dasharray="28.26944479262586,63.91352735724108" stroke-dashoffset="85.422888"/></g><g fill="none" stroke="#000000" stroke-linecap="round" stroke-miterlimit="10"><path d="M565 50h34.6c5.5 0 0-5 0-5L565 10" stroke-dasharray="23.25045981172378,68.18393270629106" stroke-dashoffset="79.939783"/><path d="M565 30h40s5 0 5-5V10s0-5-5-5h-40s-5 0-5 5v40s0 5 5 5h40s5 0 5-5V25" stroke-dasharray="42.23971006601902,197.41991910025317" stroke-dashoffset="220.486859"/><path d="M565 10h35c5.6 0 0 5 0 5l-35 35" stroke-dasharray="26.917427867761145,65.2655442821058" stroke-dashoffset="84.070871"/></g><g fill="none" stroke="#000000" stroke-linecap="round" stroke-miterlimit="10"><path d="M655 50h34.6c5.5 0 0-5 0-5L655 10" stroke-dasharray="21.334691587536796,70.09970093047805" stroke-dashoffset="78.024015"/><path d="M655 30h40s5 0 5-5V10s0-5-5-5h-40s-5 0-5 5v40s0 5 5 5h40s5 0 5-5V25" stroke-dasharray="43.28817101453205,196.37145815174017" stroke-dashoffset="217.291397"/><path d="M655 10h35c5.6 0 0 5 0 5l-35 35" stroke-dasharray="25.56541094289643,66.6175612069705" stroke-dashoffset="82.718854"/></g><g fill="none" stroke="#000000" stroke-linecap="round" stroke-miterlimit="10"><path d="M745 50h34.6c5.5 0 0-5 0-5L745 10" stroke-dasharray="19.418923363349823,72.01546915466503" stroke-dashoffset="76.108247"/><path d="M745 30h40s5 0 5-5V10s0-5-5-5h-40s-5 0-5 5v40s0 5 5 5h40s5 0 5-5V25" stroke-dasharray="44.33663196304508,195.32299720322712" stroke-dashoffset="214.095935"/><path d="M745 10h35c5.6 0 0 5 0 5l-35 35" stroke-dasharray="24.21339401803172,67.96957813183522" stroke-dashoffset="81.366837"/></g><g fill="none" stroke="#000000" stroke-linecap="round" stroke-miterlimit="10"><path d="M835 50h34.6c5.5 0 0-5 0-5L835 10" stroke-dasharray="17.503155139162843,73.931237378852" stroke-dashoffset="74.192479"/><path d="M835 30h40s5 0 5-5V10s0-5-5-5h-40s-5 0-5 5v40s0 5 5 5h40s5 0 5-5V25" stroke-dasharray="45.38509291155812,194.2745362547141" stroke-dashoffset="210.900474"/><path d="M835 10h35c5.6 0 0 5 0 5l-35 35" stroke-dasharray="22.861377093167,69.32159505669993" stroke-dashoffset="80.01482"/></g><g fill="none" stroke="#000000" stroke-linecap="round" stroke-miterlimit="10"><path d="M925 50h34.6c5.5 0 0-5 0-5L925 10" stroke-dasharray="17.355118503657486,74.07927401435735" stroke-dashoffset="72.27671"/><path d="M925 30h40s5 0 5-5V10s0-5-5-5h-40s-5 0-5 5v40s0 5 5 5h40s5 0 5-5V25" stroke-dasharray="46.433553860071136,193.22607530620104" stroke-dashoffset="207.705012"/><path d="M925 10h35c5.6 0 0 5 0 5l-35 35" stroke-dasharray="23.29156429653305,68.89140785333389" stroke-dashoffset="78.662803"/></g><g fill="none" stroke="#000000" stroke-linecap="round" stroke-miterlimit="10"><path d="M1015 50h34.6c5.5 0 0-5 0-5L1015 10" stroke-dasharray="17.207081868152127,74.22731064986272" stroke-dashoffset="70.360942"/><path d="M1015 30h40s5 0 5-5V10s0-5-5-5h-40s-5 0-5 5v40s0 5 5 5h40s5 0 5-5V25" stroke-dasharray="47.48201480858416,192.17761435768804" stroke-dashoffset="204.50955"/><path d="M1015 10h35c5.6 0 0 5 0 5l-35 35" stroke-dasharray="23.72175149989909,68.46122064996786" stroke-dashoffset="77.310786"/></g><g fill="none" stroke="#000000" stroke-linecap="round" stroke-miterlimit="10"><path d="M1105 50h34.6c5.5 0 0-5 0-5L1105 10" stroke-dasharray="17.059045232646774,74.37534728536808" stroke-dashoffset="68.445174"/><path d="M1105 30h40s5 0 5-5V10s0-5-5-5h-40s-5 0-5 5v40s0 5 5 5h40s5 0 5-5V25" stroke-dasharray="48.5304757570972,191.129153409175" stroke-dashoffset="201.314088"/><path d="M1105 10h35c5.6 0 0 5 0 5l-35 35" stroke-dasharray="24.151938703265138,68.0310334466018" stroke-dashoffset="75.958769"/></g><g fill="none" stroke="#000000" stroke-linecap="round" stroke-miterlimit="10"><path d="M1195 50h34.6c5.5 0 0-5 0-5L1195 10" stroke-dasharray="16.91100859714141,74.52338392087343" stroke-dashoffset="66.529406"/><path d="M1195 30h40s5 0 5-5V10s0-5-5-5h-40s-5 0-5 5v40s0 5 5 5h40s5 0 5-5V25" stroke-dasharray="49.57893670561023,190.08069246066196" stroke-dashoffset="198.118627"/><path d="M1195 10h35c5.6 0 0 5 0 5l-35 35" stroke-dasharray="24.582125906631184,67.60084624323576" stroke-dashoffset="74.606752"/></g><g fill="none" stroke="#000000" stroke-linecap="round" stroke-miterlimit="10"><path d="M1285 50h34.6c5.5 0 0-5 0-5L1285 10" stroke-dasharray="16.76297196163605,74.67142055637879" stroke-dashoffset="64.613637"/><path d="M1285 30h40s5 0 5-5V10s0-5-5-5h-40s-5 0-5 5v40s0 5 5 5h40s5 0 5-5V25" stroke-dasharray="50.627397654123264,189.03223151214894" stroke-dashoffset="194.923165"/><path d="M1285 10h35c5.6 0 0 5 0 5l-35 35" stroke-dasharray="25.01231310999723,67.17065903986972" stroke-dashoffset="73.254735"/></g><g fill="none" stroke="#000000" stroke-linecap="round" stroke-miterlimit="10"><path d="M1375 50h34.6c5.5 0 0-5 0-5L1375 10" stroke-dasharray="16.6149353261307,74.81945719188415" stroke-dashoffset="62.697869"/><path d="M1375 30h40s5 0 5-5V10s0-5-5-5h-40s-5 0-5 5v40s0 5 5 5h40s5 0 5-5V25" stroke-dasharray="51.6758586026363,187.9837705636359" stroke-dashoffset="191.727703"/><path d="M1375 10h35c5.6 0 0 5 0 5l-35 35" stroke-dasharray="25.44250031336328,66.74047183650366" stroke-dashoffset="71.902718"/></g><g fill="none" stroke="#000000" stroke-linecap="round" stroke-miterlimit="10"><path d="M1465 50h34.6c5.5 0 0-5 0-5L1465 10" stroke-dasharray="16.466898690625346,74.9674938273895" stroke-dashoffset="60.782101"/><path d="M1465 30h40s5 0 5-5V10s0-5-5-5h-40s-5 0-5 5v40s0 5 5 5h40s5 0 5-5V25" stroke-dasharray="55.91978127336629,183.73984789290589" stroke-dashoffset="191.727703"/><path d="M1465 10h35c5.6 0 0 5 0 5l-35 35" stroke-dasharray="25.87268751672933,66.31028463313761" stroke-dashoffset="70.550701"/></g><g fill="none" stroke="#000000" stroke-linecap="round" stroke-miterlimit="10"><path d="M1555 50h34.6c5.5 0 0-5 0-5L1555 10" stroke-dasharray="16.318862055119975,75.11553046289487" stroke-dashoffset="58.866333"/><path d="M1555 30h40s5 0 5-5V10s0-5-5-5h-40s-5 0-5 5v40s0 5 5 5h40s5 0 5-5V25" stroke-dasharray="60.1637039440963,179.4959252221759" stroke-dashoffset="191.727703"/><path d="M1555 10h35c5.6 0 0 5 0 5l-35 35" stroke-dasharray="26.302874720095357,65.88009742977158" stroke-dashoffset="69.198684"/></g><g fill="none" stroke="#000000" stroke-linecap="round" stroke-miterlimit="10"><path d="M1645 50h34.6c5.5 0 0-5 0-5L1645 10" stroke-dasharray="16.170825419614633,75.26356709840022" stroke-dashoffset="56.950564"/><path d="M1645 30h40s5 0 5-5V10s0-5-5-5h-40s-5 0-5 5v40s0 5 5 5h40s5 0 5-5V25" stroke-dasharray="64.40762661482628,175.2520025514459" stroke-dashoffset="191.727703"/><path d="M1645 10h35c5.6 0 0 5 0 5l-35 35" stroke-dasharray="26.733061923461417,65.44991022640552" stroke-dashoffset="67.846668"/></g><g fill="none" stroke="#000000" stroke-linecap="round" stroke-miterlimit="10"><path d="M1735 50h34.6c5.5 0 0-5 0-5L1735 10" stroke-dasharray="16.022788784109263,75.41160373390558" stroke-dashoffset="55.034796"/><path d="M1735 30h40s5 0 5-5V10s0-5-5-5h-40s-5 0-5 5v40s0 5 5 5h40s5 0 5-5V25" stroke-dasharray="68.65154928555627,171.00807988071594" stroke-dashoffset="191.727703"/><path d="M1735 10h35c5.6 0 0 5 0 5l-35 35" stroke-dasharray="27.163249126827452,65.01972302303949" stroke-dashoffset="66.494651"/></g><g fill="none" stroke="#000000" stroke-linecap="round" stroke-miterlimit="10"><path d="M1825 50h34.6c5.5 0 0-5 0-5L1825 10" stroke-dasharray="15.87475214860391,75.55964036941094" stroke-dashoffset="53.119028"/><path d="M1825 30h40s5 0 5-5V10s0-5-5-5h-40s-5 0-5 5v40s0 5 5 5h40s5 0 5-5V25" stroke-dasharray="72.89547195628629,166.7641572099859" stroke-dashoffset="191.727703"/><path d="M1825 10h35c5.6 0 0 5 0 5l-35 35" stroke-dasharray="27.5934363301935,64.58953581967344" stroke-dashoffset="65.142634"/></g><g fill="none" stroke="#000000" stroke-linecap="round" stroke-miterlimit="10"><path d="M1915 50h34.6c5.5 0 0-5 0-5L1915 10" stroke-dasharray="15.726715513098553,75.7076770049163" stroke-dashoffset="51.20326"/><path d="M1915 30h40s5 0 5-5V10s0-5-5-5h-40s-5 0-5 5v40s0 5 5 5h40s5 0 5-5V25" stroke-dasharray="77.13939462701627,162.5202345392559" stroke-dashoffset="191.727703"/><path d="M1915 10h35c5.6 0 0 5 0 5l-35 35" stroke-dasharray="28.02362353355955,64.15934861630738" stroke-dashoffset="63.790617"/></g><g fill="none" stroke="#000000" stroke-linecap="round" stroke-miterlimit="10"><path d="M2005 50h34.6c5.5 0 0-5 0-5L2005 10" stroke-dasharray="17.49444710178017,73.93994541623466" stroke-dashoffset="51.20326"/><path d="M2005 30h40s5 0 5-5V10s0-5-5-5h-40s-5 0-5 5v40s0 5 5 5h40s5 0 5-5V25" stroke-dasharray="81.38331729774625,158.27631186852594" stroke-dashoffset="191.727703"/><path d="M2005 10h35c5.6 0 0 5 0 5l-35 35" stroke-dasharray="28.453810736925593,63.729161412941345" stroke-dashoffset="62.4386"/></g><g fill="none" stroke="#000000" stroke-linecap="round" stroke-miterlimit="10"><path d="M2095 50h34.6c5.5 0 0-5 0-5L2095 10" stroke-dasharray="19.2621786904618,72.17221382755304" stroke-dashoffset="51.20326"/><path d="M2095 30h40s5 0 5-5V10s0-5-5-5h-40s-5 0-5 5v40s0 5 5 5h40s5 0 5-5V25" stroke-dasharray="85.62723996847626,154.03238919779594" stroke-dashoffset="191.727703"/><path d="M2095 10h35c5.6 0 0 5 0 5l-35 35" stroke-dasharray="28.883997940291643,63.2989742095753" stroke-dashoffset="61.086583"/></g><g fill="none" stroke="#000000" stroke-linecap="round" stroke-miterlimit="10"><path d="M2185 50h34.6c5.5 0 0-5 0-5L2185 10" stroke-dasharray="21.029910279143408,70.40448223887144" stroke-dashoffset="51.20326"/><path d="M2185 30h40s5 0 5-5V10s0-5-5-5h-40s-5 0-5 5v40s0 5 5 5h40s5 0 5-5V25" stroke-dasharray="89.87116263920625,149.78846652706596" stroke-dashoffset="191.727703"/><path d="M2185 10h35c5.6 0 0 5 0 5l-35 35" stroke-dasharray="29.314185143657678,62.86878700620927" stroke-dashoffset="59.734566"/></g><g fill="none" stroke="#000000" stroke-linecap="round" stroke-miterlimit="10"><path d="M2275 50h34.6c5.5 0 0-5 0-5L2275 10" stroke-dasharray="22.797641867825035,68.63675065018981" stroke-dashoffset="51.20326"/><path d="M2275 30h40s5 0 5-5V10s0-5-5-5h-40s-5 0-5 5v40s0 5 5 5h40s5 0 5-5V25" stroke-dasharray="94.11508530993623,145.54454385633596" stroke-dashoffset="191.727703"/><path d="M2275 10h35c5.6 0 0 5 0 5l-35 35" stroke-dasharray="29.74437234702373,62.43859980284321" stroke-dashoffset="58.382549"/></g><g fill="none" stroke="#000000" stroke-linecap="round" stroke-miterlimit="10"><path d="M2365 50h34.6c5.5 0 0-5 0-5L2365 10" stroke-dasharray="24.565373456506656,66.8690190615082" stroke-dashoffset="51.20326"/><path d="M2365 30h40s5 0 5-5V10s0-5-5-5h-40s-5 0-5 5v40s0 5 5 5h40s5 0 5-5V25" stroke-dasharray="98.35900798066622,141.300621185606" stroke-dashoffset="191.727703"/><path d="M2365 10h35c5.6 0 0 5 0 5l-35 35" stroke-dasharray="30.17455955038978,62.00841259947716" stroke-dashoffset="57.030532"/></g><g fill="none" stroke="#000000" stroke-linecap="round" stroke-miterlimit="10"><path d="M2455 50h34.6c5.5 0 0-5 0-5L2455 10" stroke-dasharray="26.333105045188272,65.10128747282657" stroke-dashoffset="51.20326"/><path d="M2455 30h40s5 0 5-5V10s0-5-5-5h-40s-5 0-5 5v40s0 5 5 5h40s5 0 5-5V25" stroke-dasharray="102.60293065139624,137.05669851487596" stroke-dashoffset="191.727703"/><path d="M2455 10h35c5.6 0 0 5 0 5l-35 35" stroke-dasharray="30.604746753755823,61.57822539611112" stroke-dashoffset="55.678515"/></g><g fill="none" stroke="#000000" stroke-linecap="round" stroke-miterlimit="10"><path d="M2545 50h34.6c5.5 0 0-5 0-5L2545 10" stroke-dasharray="28.100836633869903,63.333555884144936" stroke-dashoffset="51.20326"/><path d="M2545 30h40s5 0 5-5V10s0-5-5-5h-40s-5 0-5 5v40s0 5 5 5h40s5 0 5-5V25" stroke-dasharray="106.84685332212621,132.81277584414596" stroke-dashoffset="191.727703"/><path d="M2545 10h35c5.6 0 0 5 0 5l-35 35" stroke-dasharray="31.034933957121876,61.14803819274507" stroke-dashoffset="54.326498"/></g><g fill="none" stroke="#000000" stroke-linecap="round" stroke-miterlimit="10"><path d="M2635 50h34.6c5.5 0 0-5 0-5L2635 10" stroke-dasharray="29.86856822255151,61.56582429546333" stroke-dashoffset="51.20326"/><path d="M2635 30h40s5 0 5-5V10s0-5-5-5h-40s-5 0-5 5v40s0 5 5 5h40s5 0 5-5V25" stroke-dasharray="111.0907759928562,128.568853173416" stroke-dashoffset="191.727703"/><path d="M2635 10h35c5.6 0 0 5 0 5l-35 35" stroke-dasharray="31.46512116048791,60.71785098937903" stroke-dashoffset="52.974481"/></g><g fill="none" stroke="#000000" stroke-linecap="round" stroke-miterlimit="10"><path d="M2725 50h34.6c5.5 0 0-5 0-5L2725 10" stroke-dasharray="31.63629981123314,59.7980927067817" stroke-dashoffset="51.20326"/><path d="M2725 30h40s5 0 5-5V10s0-5-5-5h-40s-5 0-5 5v40s0 5 5 5h40s5 0 5-5V25" stroke-dasharray="115.33469866358621,124.324930502686" stroke-dashoffset="191.727703"/><path d="M2725 10h35c5.6 0 0 5 0 5l-35 35" stroke-dasharray="31.895308363853964,60.28766378601297" stroke-dashoffset="51.622464"/></g><g fill="none" stroke="#000000" stroke-linecap="round" stroke-miterlimit="10"><path d="M2815 50h34.6c5.5 0 0-5 0-5L2815 10" stroke-dasharray="33.40403139991477,58.030361118100075" stroke-dashoffset="51.20326"/><path d="M2815 30h40s5 0 5-5V10s0-5-5-5h-40s-5 0-5 5v40s0 5 5 5h40s5 0 5-5V25" stroke-dasharray="119.57862133431622,120.08100783195596" stroke-dashoffset="191.727703"/><path d="M2815 10h35c5.6 0 0 5 0 5l-35 35" stroke-dasharray="33.67751249208473,58.505459657782204" stroke-dashoffset="51.622464"/></g><g fill="none" stroke="#000000" stroke-linecap="round" stroke-miterlimit="10"><path d="M2905 50h34.6c5.5 0 0-5 0-5L2905 10" stroke-dasharray="35.17176298859636,56.26262952941848" stroke-dashoffset="51.20326"/><path d="M2905 30h40s5 0 5-5V10s0-5-5-5h-40s-5 0-5 5v40s0 5 5 5h40s5 0 5-5V25" stroke-dasharray="123.82254400504617,115.83708516122603" stroke-dashoffset="191.727703"/><path d="M2905 10h35c5.6 0 0 5 0 5l-35 35" stroke-dasharray="35.459716620315476,56.72325552955147" stroke-dashoffset="51.622464"/></g><g fill="none" stroke="#000000" stroke-linecap="round" stroke-miterlimit="10"><path d="M2995 50h34.6c5.5 0 0-5 0-5L2995 10" stroke-dasharray="36.939494577278,54.494897940736855" stroke-dashoffset="51.20326"/><path d="M2995 30h40s5 0 5-5V10s0-5-5-5h-40s-5 0-5 5v40s0 5 5 5h40s5 0 5-5V25" stroke-dasharray="128.0664666757762,111.59316249049598" stroke-dashoffset="191.727703"/><path d="M2995 10h35c5.6 0 0 5 0 5l-35 35" stroke-dasharray="37.24192074854624,54.941051401320706" stroke-dashoffset="51.622464"/></g><g fill="none" stroke="#000000" stroke-linecap="round" stroke-miterlimit="10"><path d="M3085 50h34.6c5.5 0 0-5 0-5L3085 10" stroke-dasharray="38.707226165959625,52.72716635205523" stroke-dashoffset="51.20326"/><path d="M3085 30h40s5 0 5-5V10s0-5-5-5h-40s-5 0-5 5v40s0 5 5 5h40s5 0 5-5V25" stroke-dasharray="132.31038934650618,107.349239819766" stroke-dashoffset="191.727703"/><path d="M3085 10h35c5.6 0 0 5 0 5l-35 35" stroke-dasharray="39.02412487677701,53.15884727308993" stroke-dashoffset="51.622464"/></g><g fill="none" stroke="#000000" stroke-linecap="round" stroke-miterlimit="10"><path d="M3175 50h34.6c5.5 0 0-5 0-5L3175 10" stroke-dasharray="40.474957754641224,50.95943476337362" stroke-dashoffset="51.20326"/><path d="M3175 30h40s5 0 5-5V10s0-5-5-5h-40s-5 0-5 5v40s0 5 5 5h40s5 0 5-5V25" stroke-dasharray="136.55431201723619,103.10531714903603" stroke-dashoffset="191.727703"/><path d="M3175 10h35c5.6 0 0 5 0 5l-35 35" stroke-dasharray="40.80632900500775,51.37664314485919" stroke-dashoffset="51.622464"/></g><g fill="none" stroke="#000000" stroke-linecap="round" stroke-miterlimit="10"><path d="M3265 50h34.6c5.5 0 0-5 0-5L3265 10" stroke-dasharray="42.24268934332286,49.19170317469199" stroke-dashoffset="51.20326"/><path d="M3265 30h40s5 0 5-5V10s0-5-5-5h-40s-5 0-5 5v40s0 5 5 5h40s5 0 5-5V25" stroke-dasharray="140.79823468796616,98.86139447830604" stroke-dashoffset="191.727703"/><path d="M3265 10h35c5.6 0 0 5 0 5l-35 35" stroke-dasharray="42.58853313323853,49.59443901662842" stroke-dashoffset="51.622464"/></g><g fill="none" stroke="#000000" stroke-linecap="round" stroke-miterlimit="10"><path d="M3355 50h34.6c5.5 0 0-5 0-5L3355 10" stroke-dasharray="44.01042093200448,47.42397158601036" stroke-dashoffset="51.20326"/><path d="M3355 30h40s5 0 5-5V10s0-5-5-5h-40s-5 0-5 5v40s0 5 5 5h40s5 0 5-5V25" stroke-dasharray="145.0421573586962,94.617471807576" stroke-dashoffset="191.727703"/><path d="M3355 10h35c5.6 0 0 5 0 5l-35 35" stroke-dasharray="44.37073726146929,47.81223488839765" stroke-dashoffset="51.622464"/></g><g fill="none" stroke="#000000" stroke-linecap="round" stroke-miterlimit="10"><path d="M3445 50h34.6c5.5 0 0-5 0-5L3445 10" stroke-dasharray="45.77815252068609,45.656239997328754" stroke-dashoffset="51.20326"/><path d="M3445 30h40s5 0 5-5V10s0-5-5-5h-40s-5 0-5 5v40s0 5 5 5h40s5 0 5-5V25" stroke-dasharray="149.28608002942613,90.37354913684607" stroke-dashoffset="191.727703"/><path d="M3445 10h35c5.6 0 0 5 0 5l-35 35" stroke-dasharray="46.15294138970004,46.0300307601669" stroke-dashoffset="51.622464"/></g><g fill="none" stroke="#000000" stroke-linecap="round" stroke-miterlimit="10"><path d="M3535 50h34.6c5.5 0 0-5 0-5L3535 10" stroke-dasharray="47.54588410936772,43.88850840864713" stroke-dashoffset="51.20326"/><path d="M3535 30h40s5 0 5-5V10s0-5-5-5h-40s-5 0-5 5v40s0 5 5 5h40s5 0 5-5V25" stroke-dasharray="153.53000270015616,86.12962646611602" stroke-dashoffset="191.727703"/><path d="M3535 10h35c5.6 0 0 5 0 5l-35 35" stroke-dasharray="47.93514551793081,44.24782663193613" stroke-dashoffset="51.622464"/></g><g fill="none" stroke="#000000" stroke-linecap="round" stroke-miterlimit="10"><path d="M3625 50h34.6c5.5 0 0-5 0-5L3625 10" stroke-dasharray="47.54588410936772,43.88850840864713" stroke-dashoffset="51.20326"/><path d="M3625 30h40s5 0 5-5V10s0-5-5-5h-40s-5 0-5 5v40s0 5 5 5h40s5 0 5-5V25" stroke-dasharray="157.77392537088616,81.88570379538604" stroke-dashoffset="191.727703"/><path d="M3625 10h35c5.6 0 0 5 0 5l-35 35" stroke-dasharray="47.93514551793081,44.24782663193613" stroke-dashoffset="51.622464"/></g><g fill="none" stroke="#000000" stroke-linecap="round" stroke-miterlimit="10"><path d="M3715 50h34.6c5.5 0 0-5 0-5L3715 10" stroke-dasharray="47.54588410936772,43.88850840864713" stroke-dashoffset="51.20326"/><path d="M3715 30h40s5 0 5-5V10s0-5-5-5h-40s-5 0-5 5v40s0 5 5 5h40s5 0 5-5V25" stroke-dasharray="162.01784804161613,77.64178112465605" stroke-dashoffset="191.727703"/><path d="M3715 10h35c5.6 0 0 5 0 5l-35 35" stroke-dasharray="47.93514551793081,44.24782663193613" stroke-dashoffset="51.622464"/></g><g fill="none" stroke="#000000" stroke-linecap="round" stroke-miterlimit="10"><path d="M3805 50h34.6c5.5 0 0-5 0-5L3805 10" stroke-dasharray="47.54588410936772,43.88850840864713" stroke-dashoffset="51.20326"/><path d="M3805 30h40s5 0 5-5V10s0-5-5-5h-40s-5 0-5 5v40s0 5 5 5h40s5 0 5-5V25" stroke-dasharray="166.26177071234613,73.39785845392608" stroke-dashoffset="191.727703"/><path d="M3805 10h35c5.6 0 0 5 0 5l-35 35" stroke-dasharray="47.93514551793081,44.24782663193613" stroke-dashoffset="51.622464"/></g><g fill="none" stroke="#000000" stroke-linecap="round" stroke-miterlimit="10"><path d="M3895 50h34.6c5.5 0 0-5 0-5L3895 10" stroke-dasharray="47.54588410936772,43.88850840864713" stroke-dashoffset="51.20326"/><path d="M3895 30h40s5 0 5-5V10s0-5-5-5h-40s-5 0-5 5v40s0 5 5 5h40s5 0 5-5V25" stroke-dasharray="170.50569338307616,69.15393578319603" stroke-dashoffset="191.727703"/><path d="M3895 10h35c5.6 0 0 5 0 5l-35 35" stroke-dasharray="47.93514551793081,44.24782663193613" stroke-dashoffset="51.622464"/></g><g fill="none" stroke="#000000" stroke-linecap="round" stroke-miterlimit="10"><path d="M3985 50h34.6c5.5 0 0-5 0-5L3985 10" stroke-dasharray="47.54588410936772,43.88850840864713" stroke-dashoffset="51.20326"/><path d="M3985 30h40s5 0 5-5V10s0-5-5-5h-40s-5 0-5 5v40s0 5 5 5h40s5 0 5-5V25" stroke-dasharray="174.7496160538061,64.9100131124661" stroke-dashoffset="191.727703"/><path d="M3985 10h35c5.6 0 0 5 0 5l-35 35" stroke-dasharray="47.93514551793081,44.24782663193613" stroke-dashoffset="51.622464"/></g><g fill="none" stroke="#000000" stroke-linecap="round" stroke-miterlimit="10"><path d="M4075 50h34.6c5.5 0 0-5 0-5L4075 10" stroke-dasharray="47.54588410936772,43.88850840864713" stroke-dashoffset="51.20326"/><path d="M4075 30h40s5 0 5-5V10s0-5-5-5h-40s-5 0-5 5v40s0 5 5 5h40s5 0 5-5V25" stroke-dasharray="178.99353872453614,60.66609044173606" stroke-dashoffset="191.727703"/><path d="M4075 10h35c5.6 0 0 5 0 5l-35 35" stroke-dasharray="47.93514551793081,44.24782663193613" stroke-dashoffset="51.622464"/></g><g fill="none" stroke="#000000" stroke-linecap="round" stroke-miterlimit="10"><path d="M4165 50h34.6c5.5 0 0-5 0-5L4165 10" stroke-dasharray="47.54588410936772,43.88850840864713" stroke-dashoffset="51.20326"/><path d="M4165 30h40s5 0 5-5V10s0-5-5-5h-40s-5 0-5 5v40s0 5 5 5h40s5 0 5-5V25" stroke-dasharray="183.2374613952661,56.42216777100608" stroke-dashoffset="191.727703"/><path d="M4165 10h35c5.6 0 0 5 0 5l-35 35" stroke-dasharray="47.93514551793081,44.24782663193613" stroke-dashoffset="51.622464"/></g><g fill="none" stroke="#000000" stroke-linecap="round" stroke-miterlimit="10"><path d="M4255 50h34.6c5.5 0 0-5 0-5L4255 10" stroke-dasharray="47.54588410936772,43.88850840864713" stroke-dashoffset="51.20326"/><path d="M4255 30h40s5 0 5-5V10s0-5-5-5h-40s-5 0-5 5v40s0 5 5 5h40s5 0 5-5V25" stroke-dasharray="187.4813840659961,52.178245100276094" stroke-dashoffset="191.727703"/><path d="M4255 10h35c5.6 0 0 5 0 5l-35 35" stroke-dasharray="47.93514551793081,44.24782663193613" stroke-dashoffset="51.622464"/></g><g fill="none" stroke="#000000" stroke-linecap="round" stroke-miterlimit="10"><path d="M4345 50h34.6c5.5 0 0-5 0-5L4345 10" stroke-dasharray="47.54588410936772,43.88850840864713" stroke-dashoffset="51.20326"/><path d="M4345 30h40s5 0 5-5V10s0-5-5-5h-40s-5 0-5 5v40s0 5 5 5h40s5 0 5-5V25" stroke-dasharray="191.72530673672608,47.93432242954611" stroke-dashoffset="191.727703"/><path d="M4345 10h35c5.6 0 0 5 0 5l-35 35" stroke-dasharray="47.93514551793081,44.24782663193613" stroke-dashoffset="51.622464"/></g></svg>